<?xml version="1.0" encoding="iso-8859-1"?>
<!-- Generator: Adobe Illustrator 22.0.0, SVG Export Plug-In . SVG Version: 6.00 Build 0)  -->
<svg version="1.1" id="&#x421;&#x43B;&#x43E;&#x439;_1"
	 xmlns="http://www.w3.org/2000/svg" xmlns:xlink="http://www.w3.org/1999/xlink" x="0px" y="0px" viewBox="0 0 79.994 80"
	 style="enable-background:new 0 0 79.994 80;" xml:space="preserve">
<g>
	<path d="M79.994,39.997h-6.249c0-18.608-15.139-33.748-33.748-33.748c-8.859,0-17.11,3.361-23.347,9.368h11.472v6.249H6.249V0
		h6.249v10.958c2.764-2.615,5.895-4.841,9.268-6.571C27.363,1.517,33.667,0,39.997,0C50.68,0,60.725,4.161,68.279,11.715
		C75.834,19.269,79.994,29.313,79.994,39.997L79.994,39.997z M51.871,64.376h11.475c-6.241,6.008-14.506,9.374-23.349,9.374
		c-18.608,0-33.747-15.139-33.747-33.747H0c0,10.684,4.161,20.728,11.715,28.282C19.269,75.84,29.313,80,39.997,80
		c6.347,0,12.418-1.444,18.043-4.292c3.444-1.744,6.64-4.006,9.456-6.67v10.956h6.249V58.127H51.871V64.376z M40.934,27.967v7.812
		c0,4.307,3.505,7.812,7.812,7.812h3.125v7.812h6.249V27.967h-6.249v9.374h-3.125c-0.862,0-1.562-0.701-1.562-1.562v-7.812H40.934z
		 M21.524,45.77l-0.901,0.913v4.72h15.936v-6.25h-5.941c0.076-0.087,0.153-0.175,0.23-0.263c4.573-5.255,5.51-7.443,5.51-9.111
		c0-4.308-3.504-7.812-7.812-7.812h-7.923v6.249h7.923c0.763,0,1.419,0.58,1.542,1.314c-0.225,0.474-1.119,2.045-4.359,5.719
		C23.594,43.67,21.545,45.75,21.524,45.77L21.524,45.77z M21.524,45.77"/>
</g>
</svg>
