<svg height="480pt" viewBox="0 -8 480 480" width="480pt" xmlns="http://www.w3.org/2000/svg"><path d="m264 32h-40v32h40c4.417969 0 8-3.582031 8-8v-16c0-4.417969-3.582031-8-8-8zm0 0"/><path d="m248 448v-288h-16v288h-232v16h480v-16zm0 0"/><path d="m304 0h-128c-4.417969 0-8 3.582031-8 8v128c0 4.417969 3.582031 8 8 8h128c4.417969 0 8-3.582031 8-8v-128c0-4.417969-3.582031-8-8-8zm-16 56c0 13.253906-10.746094 24-24 24h-40v40c0 4.417969-3.582031 8-8 8s-8-3.582031-8-8v-96c0-4.417969 3.582031-8 8-8h48c13.253906 0 24 10.746094 24 24zm0 0"/><path d="m392 352c-17.671875 0-32 14.328125-32 32s14.328125 32 32 32 32-14.328125 32-32-14.328125-32-32-32zm0 48c-8.835938 0-16-7.164062-16-16s7.164062-16 16-16 16 7.164062 16 16-7.164062 16-16 16zm0 0"/><path d="m336 320c0-4.417969-3.582031-8-8-8h-16v16h16c4.417969 0 8-3.582031 8-8zm0 0"/><path d="m320 280c-4.417969 0-8 3.582031-8 8v8h16c13.253906 0 24 10.746094 24 24s-10.746094 24-24 24h-16v32h32.71875c3.882812-23.085938 23.871094-39.992188 47.28125-39.992188s43.398438 16.90625 47.28125 39.992188h40.71875v-16h-16v-64h16v-16zm0 0"/><path d="m402.734375 188.425781-37.789063 75.574219h115.054688v-80h-70.113281c-3.03125-.007812-5.804688 1.707031-7.152344 4.425781zm24.800781 3.574219h36.464844v16h-36.472656c-3.441406.003906-6.496094 2.207031-7.582032 5.472656l-4.351562 13.054688-15.203125-5.054688 4.351563-13.058594c3.269531-9.804687 12.449218-16.421874 22.785156-16.414062zm0 0"/><path d="m52.59375 189.03125c-1.203125-3.046875-4.152344-5.042969-7.425781-5.03125h-45.167969v64h76.183594zm0 0"/><path d="m96 336c-17.671875 0-32 14.328125-32 32s14.328125 32 32 32 32-14.328125 32-32-14.328125-32-32-32zm0 48c-8.835938 0-16-7.164062-16-16s7.164062-16 16-16 16 7.164062 16 16-7.164062 16-16 16zm0 0"/><path d="m96 320c23.398438.042969 43.359375 16.933594 47.28125 40h24.71875c4.417969 0 8-3.582031 8-8v-80c0-4.417969-3.582031-8-8-8h-168v8h80v16h-80v48h40v16h-40v8h48.71875c3.921875-23.066406 23.882812-39.957031 47.28125-40zm0 0"/></svg>
