<?xml version="1.0" encoding="utf-8"?>
<!-- Generator: Adobe Illustrator 21.1.0, SVG Export Plug-In . SVG Version: 6.00 Build 0)  -->
<svg version="1.1" id="Слой_1" xmlns="http://www.w3.org/2000/svg" xmlns:xlink="http://www.w3.org/1999/xlink" x="0px" y="0px"
	 viewBox="0 0 79.1 80" style="enable-background:new 0 0 79.1 80;" xml:space="preserve">
<g>
	<path d="M67.1,58.8c2.1-1.3,3.5-3.6,3.5-6.2V21.4c0-0.6-0.1-1.2-0.2-1.8L67,5.6l0-0.1l0-0.1C66.1,2.3,63.2,0,59.9,0H19.1
		c-3.4,0-6.3,2.3-7.1,5.6l0,0l0,0l-3.2,14c-0.1,0.6-0.2,1.1-0.2,1.7v31.2c0,2.6,1.4,4.9,3.5,6.2L0.5,75.5c-0.9,1.3-0.6,3.1,0.7,4
		C1.7,79.8,2.3,80,2.9,80c0.9,0,1.8-0.4,2.4-1.2l1.5-2.2h65.6l1.5,2.2c0.6,0.8,1.4,1.2,2.4,1.2c0.6,0,1.1-0.2,1.6-0.5
		c1.3-0.9,1.6-2.7,0.7-4L67.1,58.8z M18.1,59.9h42.8l1.7,2.4H16.5L18.1,59.9z M14.2,52.6V21.4c0-0.1,0-0.3,0-0.4l3.2-14.1
		c0.2-0.7,0.8-1.2,1.6-1.2h40.8c0.7,0,1.4,0.5,1.6,1.2L64.8,21c0,0.1,0.1,0.3,0.1,0.4v31.2c0,0.7-0.4,1.3-1,1.5
		c-0.2,0.1-0.4,0.1-0.6,0.1H15.9c-0.2,0-0.4,0-0.6-0.1C14.6,53.8,14.2,53.3,14.2,52.6L14.2,52.6z M10.6,70.8l1.9-2.8h54l1.9,2.8
		H10.6z M10.6,70.8"/>
	<path d="M67.1,58.8c2.1-1.3,3.5-3.6,3.5-6.2V21.4c0-0.6-0.1-1.2-0.2-1.8L67,5.6l0-0.1l0-0.1C66.1,2.3,63.2,0,59.9,0H19.1
		c-3.4,0-6.3,2.3-7.1,5.6l0,0l0,0l-3.2,14c-0.1,0.6-0.2,1.1-0.2,1.7v31.2c0,2.6,1.4,4.9,3.5,6.2L0.5,75.5c-0.9,1.3-0.6,3.1,0.7,4
		C1.7,79.8,2.3,80,2.9,80c0.9,0,1.8-0.4,2.4-1.2l1.5-2.2h65.6l1.5,2.2c0.6,0.8,1.4,1.2,2.4,1.2c0.6,0,1.1-0.2,1.6-0.5
		c1.3-0.9,1.6-2.7,0.7-4L67.1,58.8z M18.1,59.9h42.8l1.7,2.4H16.5L18.1,59.9z M14.2,52.6V21.4c0-0.1,0-0.3,0-0.4l3.2-14.1
		c0.2-0.7,0.8-1.2,1.6-1.2h40.8c0.7,0,1.4,0.5,1.6,1.2L64.8,21c0,0.1,0.1,0.3,0.1,0.4v31.2c0,0.7-0.4,1.3-1,1.5
		c-0.2,0.1-0.4,0.1-0.6,0.1H15.9c-0.2,0-0.4,0-0.6-0.1C14.6,53.8,14.2,53.3,14.2,52.6L14.2,52.6z M10.6,70.8l1.9-2.8h54l1.9,2.8
		H10.6z M10.6,70.8"/>
	<path d="M55.4,38.6h5.7V22.9L61,22.3l-1.9-9l-1-4.5H21l-0.9,4.7l-1.6,9L18.4,23v15.7H55.4z M24.1,23.5l1.6-9h27.7l1.9,9v9.4H24.1
		V23.5z M24.1,23.5"/>
	<path d="M55.4,38.6h5.7V22.9L61,22.3l-1.9-9l-1-4.5H21l-0.9,4.7l-1.6,9L18.4,23v15.7H55.4z M24.1,23.5l1.6-9h27.7l1.9,9v9.4H24.1
		V23.5z M24.1,23.5"/>
	<path d="M25.9,43.7h-1.5c-1.1,0-2,0.9-2,2v1.5c0,1.1,0.9,2,2,2h1.5c1.1,0,2-0.9,2-2v-1.5C27.9,44.6,27,43.7,25.9,43.7L25.9,43.7z
		 M25.9,43.7"/>
	<path d="M25.9,43.7h-1.5c-1.1,0-2,0.9-2,2v1.5c0,1.1,0.9,2,2,2h1.5c1.1,0,2-0.9,2-2v-1.5C27.9,44.6,27,43.7,25.9,43.7L25.9,43.7z
		 M25.9,43.7"/>
	<path d="M54.8,43.7h-1.5c-1.1,0-2,0.9-2,2v1.5c0,1.1,0.9,2,2,2h1.5c1.1,0,2-0.9,2-2v-1.5C56.8,44.6,55.9,43.7,54.8,43.7L54.8,43.7z
		 M54.8,43.7"/>
	<path d="M54.8,43.7h-1.5c-1.1,0-2,0.9-2,2v1.5c0,1.1,0.9,2,2,2h1.5c1.1,0,2-0.9,2-2v-1.5C56.8,44.6,55.9,43.7,54.8,43.7L54.8,43.7z
		 M54.8,43.7"/>
</g>
</svg>
