<?xml version="1.0" encoding="iso-8859-1"?>
<!-- Generator: Adobe Illustrator 22.0.0, SVG Export Plug-In . SVG Version: 6.00 Build 0)  -->
<svg version="1.1" id="&#x421;&#x43B;&#x43E;&#x439;_1"
	 xmlns="http://www.w3.org/2000/svg" xmlns:xlink="http://www.w3.org/1999/xlink" x="0px" y="0px" viewBox="0 0 239.996 240"
	 style="enable-background:new 0 0 239.996 240;" xml:space="preserve">
<path style="fill:#FFFFFF;" d="M119.996,0C53.727,0,0,53.726,0,119.996C0,186.265,53.727,240,119.996,240
	c66.27,0,120-53.731,120-120.004C239.996,53.722,186.27,0,119.996,0L119.996,0z M121.179,176.405v-0.004H69.187
	c0-37.485,32.922-37.473,40.227-47.274l0.836-4.472c-10.262-5.203-17.508-17.742-17.508-32.41c0-19.325,12.57-34.989,28.07-34.989
	c15.504,0,28.07,15.664,28.07,34.989c0,14.543-7.113,27.007-17.242,32.289l0.953,5.082c8.016,9.328,39.84,9.933,39.84,46.789
	H121.179z"/>
</svg>
