<?xml version="1.0" encoding="iso-8859-1"?>
<!-- Generator: Adobe Illustrator 22.0.0, SVG Export Plug-In . SVG Version: 6.00 Build 0)  -->
<svg version="1.1" id="Capa_1" xmlns="http://www.w3.org/2000/svg" xmlns:xlink="http://www.w3.org/1999/xlink" x="0px" y="0px"
	 viewBox="167.333 357 80 80" style="enable-background:new 167.333 357 80 80;" xml:space="preserve">
<g>
	<path d="M217.776,366.842c2.683,0.002,5.342,0.511,7.836,1.501c-1.54-2.595-4.331-4.19-7.349-4.2h-21.858
		c-3.018,0.01-5.809,1.605-7.349,4.2c2.494-0.99,5.153-1.499,7.836-1.501H217.776z"/>
	<path d="M185.369,369.709c1.364-4.971,5.881-8.418,11.035-8.424h21.858c5.155,0.006,9.671,3.454,11.035,8.425l2.713,9.943
		c2.382,0.215,4.683,0.97,6.729,2.207l-3.057-11.17c-2.21-8.072-9.538-13.675-17.907-13.691h-20.884
		c-8.369,0.016-15.697,5.618-17.907,13.69l-3.057,11.171c2.046-1.238,4.348-1.993,6.729-2.208L185.369,369.709z"/>
	<path d="M237.333,399.857c2.957-0.002,5.823,1.02,8.111,2.892l-2.212-10.179c-1.521-6.881-8.282-11.269-15.186-9.856l-17.508,3.648
		c-2.113,0.444-4.296,0.444-6.409,0l-17.508-3.648c-6.905-1.414-13.667,2.975-15.186,9.858l-2.212,10.178
		c2.288-1.872,5.154-2.894,8.111-2.892H237.333z"/>
	<path d="M237.333,402.714h-60c-5.52,0.007-9.993,4.48-10,10V427c0.007,5.52,4.48,9.993,10,10h60c5.52-0.007,9.993-4.48,10-10
		v-14.286C247.327,407.194,242.853,402.721,237.333,402.714z M179.176,405.986c0.137-0.129,0.297-0.231,0.472-0.3
		c0.26-0.115,0.55-0.145,0.829-0.087c0.089,0.016,0.176,0.045,0.257,0.087c0.088,0.028,0.17,0.072,0.243,0.128
		c0.082,0.049,0.159,0.107,0.229,0.172c0.263,0.272,0.412,0.636,0.414,1.014c-0.002,0.187-0.041,0.371-0.114,0.543
		c-0.13,0.359-0.413,0.641-0.771,0.771c-0.172,0.073-0.356,0.112-0.543,0.114c-0.379-0.003-0.742-0.151-1.014-0.414
		c-0.126-0.143-0.232-0.301-0.315-0.472c-0.068-0.173-0.102-0.357-0.099-0.543C178.767,406.622,178.915,406.259,179.176,405.986z
		 M170.618,416.572c-0.554-0.554-0.558-1.452-0.009-2.011l4.286-4.286c0.559-0.549,1.457-0.545,2.011,0.009s0.558,1.452,0.009,2.011
		l-4.286,4.286C172.07,417.131,171.172,417.127,170.618,416.572z M174.058,423.724c-0.559,0.549-1.457,0.545-2.011-0.009
		s-0.558-1.452-0.009-2.011l15.714-15.714c0.559-0.549,1.457-0.545,2.011,0.009c0.554,0.554,0.558,1.452,0.009,2.011
		L174.058,423.724z M225.953,422.156c0,3.489-2.839,6.328-6.328,6.328h-24.583c-3.489,0-6.328-2.839-6.328-6.328v-0.521
		c0-3.489,2.839-6.328,6.328-6.328h24.583c3.489,0,6.328,2.839,6.328,6.328V422.156z"/>
	<path d="M219.625,416.089h-24.583c-3.059,0-5.547,2.488-5.547,5.547v0.521c0,3.059,2.488,5.547,5.547,5.547h24.583
		c3.059,0,5.547-2.488,5.547-5.547v-0.521C225.172,418.577,222.684,416.089,219.625,416.089z M199.807,424.448
		c-1.366,0-2.474-1.108-2.474-2.474s1.108-2.474,2.474-2.474c1.366,0,2.474,1.108,2.474,2.474S201.174,424.448,199.807,424.448z
		 M214.755,424.448c-1.366,0-2.474-1.108-2.474-2.474s1.108-2.474,2.474-2.474c1.366,0,2.474,1.108,2.474,2.474
		S216.122,424.448,214.755,424.448z"/>
</g>
</svg>
