<?xml version="1.0" encoding="iso-8859-1"?>
<!-- Generator: Adobe Illustrator 22.0.0, SVG Export Plug-In . SVG Version: 6.00 Build 0)  -->
<svg version="1.1" id="&#x421;&#x43B;&#x43E;&#x439;_1"
	 xmlns="http://www.w3.org/2000/svg" xmlns:xlink="http://www.w3.org/1999/xlink" x="0px" y="0px" viewBox="0 0 74.151 80"
	 style="enable-background:new 0 0 74.151 80;" xml:space="preserve">
<g>
	<path d="M65.25,76.264H6.377c-2.836,0-3.241-2.284-3.282-3.292v-2.885c0-1.078,0.872-1.952,1.952-1.952H46.59
		c7.26,0,8.268-6.113,8.368-8.769c-0.007-0.112-0.015-0.185-0.015-0.185v-34.18c0,0,0.015-0.089,0.026-0.241
		c-0.077-2.764-0.993-8.987-7.738-8.987H7.078c-2.969,0-3.217-2.37-3.232-2.99V7.144c0-3.14,3.11-3.079,3.11-3.079h59.545
		c0,0,3.424-0.03,3.424,3.964v63.033h0.01C69.96,71.909,69.877,76.264,65.25,76.264L65.25,76.264z M12.382,45.976
		c0-1.325,1.074-2.407,2.405-2.407h17.215c1.33,0,2.405,1.082,2.405,2.407v5.556c-0.019,1.137-0.034,2.548-0.023,4.12v0.715
		c-0.018,0.22-0.033,0.471-0.072,0.744c-0.179,1.611-0.706,3.958-2.174,6.47c0,0.007-0.007,0.007-0.007,0.017
		c-0.106,0.259-0.26,0.487-0.442,0.694H15.082c-0.212-0.246-0.394-0.521-0.501-0.839c-1.364-2.389-1.891-4.618-2.084-6.192v-0.007
		c-0.09-0.689-0.114-1.252-0.114-1.643L12.382,45.976z M37.232,51.708c0.004-0.858,0.016-1.591,0.026-2.115
		c0.02-0.548,0.026-0.871,0.026-0.871c0.077-0.399,0.256-0.768,0.496-1.079c0.466-0.597,1.198-0.983,2.022-0.983
		c1.421,0,2.58,1.154,2.58,2.572c0,0.05,0,0.098-0.007,0.147c0,0,0,0.026-0.003,0.078c-0.011,0.047-0.014,0.099-0.021,0.147
		c-0.005,0.025-0.005,0.047-0.007,0.074c0,0.017-0.011,0.038-0.014,0.061c-0.11,0.551-0.494,1.777-1.878,3.73
		c-0.076,0.1-0.149,0.217-0.233,0.322c-0.311,0.35-0.767,0.573-1.274,0.573c-0.946,0-1.72-0.762-1.72-1.711v-0.944h0.005V51.708z
		 M70.251,0H3.906C1.761,0,0.004,1.755,0.004,3.903v7.906c0,0,0,0.026-0.004,0.045c0.13,2.402,0.988,7.82,6.162,7.82H16.67v6.493
		c0,1.325,1.071,2.4,2.399,2.4h7.22c1.346,0,2.42-1.074,2.42-2.4v-6.493h16.174c0,0,6.167-0.365,6.167,6.891v32.239
		c0,4.539-3.379,5.362-5.157,5.487H35.149c1.136-2.244,1.76-4.345,2.048-6.031c0.332,0.11,0.673,0.182,1.043,0.182
		c0.973,0,1.853-0.423,2.454-1.098c0.152-0.206,0.301-0.425,0.444-0.621c2.662-3.756,3.406-6.108,3.617-7.174
		c0.007-0.043,0.017-0.081,0.017-0.115c0.015-0.049,0.015-0.092,0.027-0.143c0.007-0.095,0.014-0.187,0.024-0.28
		c0.017-0.106,0.017-0.155,0.017-0.155c0.008-0.095,0.008-0.187,0.008-0.282c0-2.733-2.225-4.947-4.963-4.947
		c-0.866,0-1.682,0.232-2.398,0.628v-1.528c0-1.71-1.385-3.108-3.104-3.108H12.149c-1.719,0-3.106,1.401-3.106,3.108v12.446
		c0,0.507,0.031,1.232,0.145,2.122v0.01c0.22,1.8,0.838,4.289,2.199,6.986H7.291c-2.504,0-3.857,0.467-4.269,0.636
		c-1.16,0.554-2.356,1.587-2.816,3.555c-0.05,0.193-0.086,0.394-0.113,0.604c-0.024,0.145-0.031,0.304-0.044,0.459
		c-0.01,0.159-0.044,0.296-0.044,0.467v4.003c0,0,0.122,5.985,5.883,5.985h61.587c6.208,0,6.652-5.949,6.676-7.272V3.903
		C74.151,1.755,72.395,0,70.251,0L70.251,0z M70.251,0"/>
</g>
</svg>
