<?xml version="1.0" encoding="iso-8859-1"?>
<!-- Generator: Adobe Illustrator 19.0.0, SVG Export Plug-In . SVG Version: 6.00 Build 0)  -->
<svg version="1.1" id="Capa_1" xmlns="http://www.w3.org/2000/svg" xmlns:xlink="http://www.w3.org/1999/xlink" x="0px" y="0px"
	 viewBox="0 0 512 512" style="enable-background:new 0 0 512 512;" xml:space="preserve">
<g>
	<g>
		<path d="M256,42.667H68.267c-14.114,0-25.6,11.486-25.6,25.6V256c0,4.719,3.823,8.533,8.533,8.533H256
			c4.71,0,8.533-3.814,8.533-8.533V51.2C264.533,46.481,260.71,42.667,256,42.667z M247.467,247.467H59.733v-179.2
			c0-4.71,3.823-8.533,8.533-8.533h179.2V247.467z"/>
	</g>
</g>
<g>
	<g>
		<path d="M153.6,68.267c-47.053,0-85.333,38.281-85.333,85.333c0,47.053,38.281,85.333,85.333,85.333
			c47.053,0,85.333-38.281,85.333-85.333C238.933,106.547,200.653,68.267,153.6,68.267z M153.6,221.867
			c-37.641,0-68.267-30.626-68.267-68.267c0-37.641,30.626-68.267,68.267-68.267c37.641,0,68.267,30.626,68.267,68.267
			C221.867,191.241,191.241,221.867,153.6,221.867z"/>
	</g>
</g>
<g>
	<g>
		<path d="M153.6,119.467c-18.825,0-34.133,15.309-34.133,34.133c0,18.825,15.309,34.133,34.133,34.133
			c19.14,0,34.133-14.993,34.133-34.133C187.733,134.775,172.425,119.467,153.6,119.467z M153.6,170.667
			c-9.412,0-17.067-7.654-17.067-17.067c0-9.412,7.654-17.067,17.067-17.067c9.412,0,17.067,7.654,17.067,17.067
			C170.667,163.337,163.328,170.667,153.6,170.667z"/>
	</g>
</g>
<g>
	<g>
		<path d="M473.6,0H38.409C17.229,0,0,17.237,0,38.409v435.183C0,494.763,17.229,512,38.409,512h435.183
			c21.18,0,38.409-17.237,38.409-38.409V38.409C512,17.237,494.771,0,473.6,0z M494.933,473.591
			c0,11.767-9.574,21.342-21.333,21.342H38.409c-11.767,0-21.342-9.574-21.342-21.342V38.409c0-11.767,9.574-21.342,21.342-21.342
			h435.183c11.767,0,21.342,9.574,21.342,21.342V473.591z"/>
	</g>
</g>
<g>
	<g>
		<path d="M153.6,42.667c-4.71,0-8.533,3.814-8.533,8.533v42.667c0,4.719,3.823,8.533,8.533,8.533c4.71,0,8.533-3.814,8.533-8.533
			V51.2C162.133,46.481,158.31,42.667,153.6,42.667z"/>
	</g>
</g>
<g>
	<g>
		<path d="M153.6,204.8c-4.71,0-8.533,3.814-8.533,8.533V256c0,4.719,3.823,8.533,8.533,8.533c4.71,0,8.533-3.814,8.533-8.533
			v-42.667C162.133,208.614,158.31,204.8,153.6,204.8z"/>
	</g>
</g>
<g>
	<g>
		<path d="M256,145.067h-42.667c-4.71,0-8.533,3.814-8.533,8.533c0,4.719,3.823,8.533,8.533,8.533H256
			c4.71,0,8.533-3.814,8.533-8.533C264.533,148.881,260.71,145.067,256,145.067z"/>
	</g>
</g>
<g>
	<g>
		<path d="M93.867,145.067H51.2c-4.71,0-8.533,3.814-8.533,8.533c0,4.719,3.823,8.533,8.533,8.533h42.667
			c4.71,0,8.533-3.814,8.533-8.533C102.4,148.881,98.577,145.067,93.867,145.067z"/>
	</g>
</g>
<g>
	<g>
		<path d="M443.733,42.667H256c-4.71,0-8.533,3.814-8.533,8.533V256c0,4.719,3.823,8.533,8.533,8.533h204.8
			c4.71,0,8.533-3.814,8.533-8.533V68.267C469.333,54.153,457.847,42.667,443.733,42.667z M452.267,247.467H264.533V59.733h179.2
			c4.71,0,8.533,3.823,8.533,8.533V247.467z"/>
	</g>
</g>
<g>
	<g>
		<path d="M358.4,68.267c-47.053,0-85.333,38.281-85.333,85.333c0,47.053,38.281,85.333,85.333,85.333s85.333-38.281,85.333-85.333
			C443.733,106.547,405.453,68.267,358.4,68.267z M358.4,221.867c-37.641,0-68.267-30.626-68.267-68.267
			c0-37.641,30.626-68.267,68.267-68.267c37.641,0,68.267,30.626,68.267,68.267C426.667,191.241,396.041,221.867,358.4,221.867z"/>
	</g>
</g>
<g>
	<g>
		<path d="M358.4,119.467c-18.825,0-34.133,15.309-34.133,34.133c0,18.825,15.309,34.133,34.133,34.133
			c19.14,0,34.133-14.993,34.133-34.133C392.533,134.775,377.225,119.467,358.4,119.467z M358.4,170.667
			c-9.412,0-17.067-7.654-17.067-17.067c0-9.412,7.654-17.067,17.067-17.067s17.067,7.654,17.067,17.067
			C375.467,163.337,368.128,170.667,358.4,170.667z"/>
	</g>
</g>
<g>
	<g>
		<path d="M358.4,42.667c-4.71,0-8.533,3.814-8.533,8.533v42.667c0,4.719,3.823,8.533,8.533,8.533s8.533-3.814,8.533-8.533V51.2
			C366.933,46.481,363.11,42.667,358.4,42.667z"/>
	</g>
</g>
<g>
	<g>
		<path d="M358.4,204.8c-4.71,0-8.533,3.814-8.533,8.533V256c0,4.719,3.823,8.533,8.533,8.533s8.533-3.814,8.533-8.533v-42.667
			C366.933,208.614,363.11,204.8,358.4,204.8z"/>
	</g>
</g>
<g>
	<g>
		<path d="M460.8,145.067h-42.667c-4.71,0-8.533,3.814-8.533,8.533c0,4.719,3.823,8.533,8.533,8.533H460.8
			c4.71,0,8.533-3.814,8.533-8.533C469.333,148.881,465.51,145.067,460.8,145.067z"/>
	</g>
</g>
<g>
	<g>
		<path d="M298.667,145.067H256c-4.71,0-8.533,3.814-8.533,8.533c0,4.719,3.823,8.533,8.533,8.533h42.667
			c4.71,0,8.533-3.814,8.533-8.533C307.2,148.881,303.377,145.067,298.667,145.067z"/>
	</g>
</g>
<g>
	<g>
		<path d="M460.8,247.467H256c-4.71,0-8.533,3.814-8.533,8.533v204.8c0,4.719,3.823,8.533,8.533,8.533h187.733
			c14.114,0,25.6-11.486,25.6-25.6V256C469.333,251.281,465.51,247.467,460.8,247.467z M452.267,443.733
			c0,4.71-3.823,8.533-8.533,8.533h-179.2V264.533h187.733V443.733z"/>
	</g>
</g>
<g>
	<g>
		<path d="M358.4,273.067c-47.053,0-85.333,38.281-85.333,85.333s38.281,85.333,85.333,85.333s85.333-38.281,85.333-85.333
			S405.453,273.067,358.4,273.067z M358.4,426.667c-37.641,0-68.267-30.626-68.267-68.267c0-37.641,30.626-68.267,68.267-68.267
			c37.641,0,68.267,30.626,68.267,68.267C426.667,396.041,396.041,426.667,358.4,426.667z"/>
	</g>
</g>
<g>
	<g>
		<path d="M358.4,324.267c-18.825,0-34.133,15.309-34.133,34.133s15.309,34.133,34.133,34.133c19.14,0,34.133-14.993,34.133-34.133
			C392.533,339.576,377.225,324.267,358.4,324.267z M358.4,375.467c-9.412,0-17.067-7.654-17.067-17.067s7.654-17.067,17.067-17.067
			s17.067,7.654,17.067,17.067C375.467,368.137,368.128,375.467,358.4,375.467z"/>
	</g>
</g>
<g>
	<g>
		<path d="M358.4,247.467c-4.71,0-8.533,3.814-8.533,8.533v42.667c0,4.719,3.823,8.533,8.533,8.533s8.533-3.814,8.533-8.533V256
			C366.933,251.281,363.11,247.467,358.4,247.467z"/>
	</g>
</g>
<g>
	<g>
		<path d="M358.4,409.6c-4.71,0-8.533,3.814-8.533,8.533V460.8c0,4.719,3.823,8.533,8.533,8.533s8.533-3.814,8.533-8.533v-42.667
			C366.933,413.414,363.11,409.6,358.4,409.6z"/>
	</g>
</g>
<g>
	<g>
		<path d="M460.8,349.867h-42.667c-4.71,0-8.533,3.814-8.533,8.533s3.823,8.533,8.533,8.533H460.8c4.71,0,8.533-3.814,8.533-8.533
			S465.51,349.867,460.8,349.867z"/>
	</g>
</g>
<g>
	<g>
		<path d="M298.667,349.867H256c-4.71,0-8.533,3.814-8.533,8.533s3.823,8.533,8.533,8.533h42.667c4.71,0,8.533-3.814,8.533-8.533
			S303.377,349.867,298.667,349.867z"/>
	</g>
</g>
<g>
	<g>
		<path d="M256,247.467H51.2c-4.71,0-8.533,3.814-8.533,8.533v187.733c0,14.114,11.486,25.6,25.6,25.6H256
			c4.71,0,8.533-3.814,8.533-8.533V256C264.533,251.281,260.71,247.467,256,247.467z M247.467,452.267h-179.2
			c-4.71,0-8.533-3.823-8.533-8.533v-179.2h187.733V452.267z"/>
	</g>
</g>
<g>
	<g>
		<path d="M153.6,273.067c-47.053,0-85.333,38.281-85.333,85.333s38.281,85.333,85.333,85.333c47.053,0,85.333-38.281,85.333-85.333
			S200.653,273.067,153.6,273.067z M153.6,426.667c-37.641,0-68.267-30.626-68.267-68.267c0-37.641,30.626-68.267,68.267-68.267
			c37.641,0,68.267,30.626,68.267,68.267C221.867,396.041,191.241,426.667,153.6,426.667z"/>
	</g>
</g>
<g>
	<g>
		<path d="M153.6,324.267c-18.825,0-34.133,15.309-34.133,34.133s15.309,34.133,34.133,34.133c19.14,0,34.133-14.993,34.133-34.133
			C187.733,339.576,172.425,324.267,153.6,324.267z M153.6,375.467c-9.412,0-17.067-7.654-17.067-17.067s7.654-17.067,17.067-17.067
			c9.412,0,17.067,7.654,17.067,17.067C170.667,368.137,163.328,375.467,153.6,375.467z"/>
	</g>
</g>
<g>
	<g>
		<path d="M153.6,247.467c-4.71,0-8.533,3.814-8.533,8.533v42.667c0,4.719,3.823,8.533,8.533,8.533c4.71,0,8.533-3.814,8.533-8.533
			V256C162.133,251.281,158.31,247.467,153.6,247.467z"/>
	</g>
</g>
<g>
	<g>
		<path d="M153.6,409.6c-4.71,0-8.533,3.814-8.533,8.533V460.8c0,4.719,3.823,8.533,8.533,8.533c4.71,0,8.533-3.814,8.533-8.533
			v-42.667C162.133,413.414,158.31,409.6,153.6,409.6z"/>
	</g>
</g>
<g>
	<g>
		<path d="M256,349.867h-42.667c-4.71,0-8.533,3.814-8.533,8.533s3.823,8.533,8.533,8.533H256c4.71,0,8.533-3.814,8.533-8.533
			S260.71,349.867,256,349.867z"/>
	</g>
</g>
<g>
	<g>
		<path d="M93.867,349.867H51.2c-4.71,0-8.533,3.814-8.533,8.533s3.823,8.533,8.533,8.533h42.667c4.71,0,8.533-3.814,8.533-8.533
			S98.577,349.867,93.867,349.867z"/>
	</g>
</g>
<g>
</g>
<g>
</g>
<g>
</g>
<g>
</g>
<g>
</g>
<g>
</g>
<g>
</g>
<g>
</g>
<g>
</g>
<g>
</g>
<g>
</g>
<g>
</g>
<g>
</g>
<g>
</g>
<g>
</g>
</svg>
