<?xml version="1.0" encoding="iso-8859-1"?>
<!-- Generator: Adobe Illustrator 22.0.0, SVG Export Plug-In . SVG Version: 6.00 Build 0)  -->
<svg version="1.1" id="&#x421;&#x43B;&#x43E;&#x439;_1"
	 xmlns="http://www.w3.org/2000/svg" xmlns:xlink="http://www.w3.org/1999/xlink" x="0px" y="0px" viewBox="0 0 80 80"
	 style="enable-background:new 0 0 80 80;" xml:space="preserve">
<g>
	<path d="M40,0C17.944,0,0,17.944,0,40s17.944,40,40,40s40-17.944,40-40S62.056,0,40,0L40,0z M56.822,66.714l-1.724-2.965
		c-0.199-0.342-0.569-0.554-0.966-0.554c-0.197,0-0.384,0.05-0.557,0.151c-0.258,0.149-0.441,0.391-0.518,0.678
		c-0.075,0.288-0.035,0.587,0.114,0.845l1.727,2.969c-3.857,2.072-8.192,3.364-12.792,3.669V67.32c0-1.163-0.943-2.105-2.105-2.105
		s-2.105,0.943-2.105,2.105v4.187c-4.533-0.299-8.808-1.561-12.621-3.579l1.708-2.979c0.148-0.258,0.186-0.558,0.108-0.845
		c-0.077-0.288-0.262-0.527-0.52-0.676c-0.172-0.098-0.358-0.148-0.553-0.148c-0.399,0-0.77,0.215-0.969,0.56l-1.706,2.976
		c-3.803-2.371-7.07-5.528-9.567-9.244l3.618-2.089c1.006-0.581,1.352-1.869,0.77-2.875c-0.581-1.007-1.869-1.352-2.875-0.771
		l-3.624,2.092c-1.907-3.862-3.046-8.168-3.217-12.718l3.437-0.011c0.298-0.001,0.577-0.118,0.786-0.329
		c0.21-0.211,0.325-0.491,0.324-0.788c-0.002-0.613-0.502-1.111-1.114-1.111l-3.442,0.01c0.147-4.621,1.292-8.994,3.226-12.91
		l3.624,2.092c0.331,0.191,0.693,0.282,1.049,0.282c0.728,0,1.436-0.377,1.826-1.053c0.582-1.006,0.236-2.294-0.77-2.875
		l-3.619-2.09c2.462-3.662,5.67-6.782,9.405-9.141l1.724,2.965c0.1,0.172,0.236,0.308,0.407,0.406
		c0.341,0.195,0.773,0.197,1.115-0.003c0.258-0.149,0.442-0.391,0.518-0.678c0.076-0.287,0.036-0.587-0.114-0.845l-1.726-2.969
		c3.857-2.072,8.191-3.364,12.792-3.669v4.187c0,1.162,0.943,2.105,2.105,2.105s2.105-0.943,2.105-2.105V8.494
		c4.532,0.299,8.807,1.559,12.62,3.578l-1.707,2.979c-0.305,0.534-0.12,1.215,0.412,1.522c0.172,0.098,0.357,0.148,0.552,0.148
		c0.4,0,0.771-0.215,0.968-0.56l1.707-2.976c3.804,2.371,7.07,5.528,9.568,9.243l-3.618,2.09c-1.007,0.581-1.352,1.869-0.77,2.875
		c0.39,0.675,1.097,1.053,1.825,1.053c0.358,0,0.719-0.091,1.051-0.282l3.624-2.092c1.907,3.862,3.046,8.168,3.217,12.718
		l-3.437,0.01c-0.298,0.001-0.578,0.117-0.787,0.329c-0.209,0.211-0.325,0.491-0.323,0.789c0.001,0.397,0.216,0.767,0.561,0.964
		c0.168,0.097,0.358,0.147,0.552,0.147h0.004l3.439-0.011c-0.148,4.622-1.292,8.994-3.226,12.911l-3.624-2.092
		c-1.007-0.581-2.294-0.236-2.875,0.771c-0.582,1.006-0.236,2.294,0.77,2.875l3.618,2.089
		C63.763,61.234,60.555,64.354,56.822,66.714L56.822,66.714z M56.822,66.714"/>
	<path d="M55.559,28.584l-13.503,7.492c-0.614-0.323-1.314-0.508-2.056-0.508c-0.743,0-1.441,0.185-2.056,0.508l-13.503-7.492
		c-1.277-0.709-2.887-0.248-3.596,1.029c-0.708,1.277-0.248,2.887,1.03,3.595l13.777,7.645c0.399,2.038,2.193,3.578,4.348,3.578
		c2.155,0,3.949-1.54,4.347-3.578l13.777-7.645c1.278-0.708,1.738-2.318,1.03-3.595C58.446,28.337,56.836,27.875,55.559,28.584
		L55.559,28.584z M55.559,28.584"/>
</g>
</svg>
