<?xml version="1.0" encoding="iso-8859-1"?>
<!-- Generator: Adobe Illustrator 22.0.0, SVG Export Plug-In . SVG Version: 6.00 Build 0)  -->
<svg version="1.1" id="&#x421;&#x43B;&#x43E;&#x439;_1"
	 xmlns="http://www.w3.org/2000/svg" xmlns:xlink="http://www.w3.org/1999/xlink" x="0px" y="0px" viewBox="0 0 80 80"
	 style="enable-background:new 0 0 80 80;" xml:space="preserve">
<g>
	<path d="M37.046,6.33h-6.248V0.082h6.248V6.33z M73.752,0.082H67.66V6.33h6.091v6.091H80V6.33C80,2.879,77.203,0.082,73.752,0.082
		L73.752,0.082z M49.229,0.082h-6.248V6.33h6.248V0.082z M61.412,0.082h-6.248V6.33h6.248V0.082z M73.752,24.761H80v-6.248h-6.248
		V24.761z M6.275,18.513H0.027v6.248h6.248V18.513z M24.863,0.082h-6.248V6.33h6.248V0.082z M6.275,6.33h5.936V0.082H6.275
		c-3.451,0-6.248,2.797-6.248,6.248v6.091h6.248V6.33z M36.733,37.256h-6.248v6.248h6.248V37.256z M73.752,37.256H67.66v6.248h6.091
		c3.451,0,6.248-2.797,6.248-6.248v-6.247h-6.248V37.256z M48.917,37.256h-6.248v6.248h6.248V37.256z M61.412,37.256h-6.248v6.248
		h6.248V37.256z M24.55,37.256h-6.248v6.248h6.248V37.256z M6.275,43.505h5.936v-6.248H6.275v-6.247H0.027v6.247
		C0.027,40.707,2.824,43.505,6.275,43.505L6.275,43.505z M61.376,55.975l6.635,6.725H11.86l6.635-6.725l-4.448-4.388L0,65.827
		l14.06,14.091l4.423-4.413l-6.542-6.556H67.93l-6.542,6.556l4.423,4.413l14.06-14.091l-14.047-14.24L61.376,55.975z M61.376,55.975
		"/>
</g>
</svg>
