<?xml version="1.0" encoding="iso-8859-1"?>
<!-- Generator: Adobe Illustrator 22.0.0, SVG Export Plug-In . SVG Version: 6.00 Build 0)  -->
<svg version="1.1" id="&#x421;&#x43B;&#x43E;&#x439;_1"
	 xmlns="http://www.w3.org/2000/svg" xmlns:xlink="http://www.w3.org/1999/xlink" x="0px" y="0px" viewBox="0 0 80 80"
	 style="enable-background:new 0 0 80 80;" xml:space="preserve">
<g>
	<path d="M35.384,29.512c-0.674,0.268-1.009,1.026-0.755,1.705c0.254,0.68,1.004,1.031,1.688,0.793c2.371-0.891,4.986-0.891,7.357,0
		c0.685,0.239,1.435-0.113,1.689-0.793c0.254-0.679-0.082-1.436-0.755-1.705C41.634,28.398,38.358,28.398,35.384,29.512
		L35.384,29.512z M35.384,29.512"/>
	<path d="M47.972,26.626c0.614-0.001,1.148-0.421,1.294-1.017c0.146-0.596-0.135-1.216-0.68-1.5c-5.384-2.789-11.789-2.789-17.173,0
		c-0.44,0.209-0.732,0.642-0.76,1.129c-0.028,0.487,0.212,0.949,0.626,1.207c0.413,0.259,0.935,0.27,1.359,0.031
		c4.617-2.391,10.106-2.391,14.723,0C47.55,26.575,47.759,26.626,47.972,26.626L47.972,26.626z M47.972,26.626"/>
	<path d="M28.972,21.088c6.773-4.128,15.283-4.128,22.056,0c0.629,0.382,1.45,0.182,1.832-0.448c0.382-0.63,0.182-1.45-0.448-1.832
		c-7.623-4.646-17.201-4.646-24.824,0c-0.63,0.382-0.83,1.202-0.448,1.832C27.522,21.27,28.343,21.47,28.972,21.088L28.972,21.088z
		 M28.972,21.088"/>
	<path d="M67.24,36.37c-7.68-0.68-21.493-1.027-27.24-1.027c-5.747,0-19.56,0.346-27.24,1.027c-3.385,0.203-6.042,2.982-6.093,6.373
		v15.56c0.019,3.528,2.885,6.376,6.414,6.373h20.907c0.838-0.001,1.623-0.409,2.106-1.093l1.107-1.587
		c0.498-0.716,1.315-1.143,2.186-1.146h1.227c0.872,0.003,1.688,0.431,2.186,1.146l1.107,1.587c0.483,0.684,1.268,1.092,2.106,1.093
		H66.92c3.528,0.003,6.395-2.846,6.414-6.373v-15.56C73.282,39.352,70.625,36.573,67.24,36.37L67.24,36.37z M13.333,48.677
		c-0.588,0.001-1.107-0.383-1.277-0.946c-0.171-0.563,0.047-1.171,0.535-1.497l8-5.333c0.612-0.409,1.441-0.243,1.85,0.369
		c0.408,0.612,0.243,1.441-0.369,1.849l-8,5.333C13.854,48.599,13.596,48.677,13.333,48.677L13.333,48.677z M27.406,45.786l-8,5.333
		c-0.613,0.409-1.441,0.244-1.849-0.369c-0.409-0.613-0.244-1.441,0.369-1.849l8-5.333c0.612-0.409,1.441-0.243,1.85,0.369
		C28.183,44.549,28.018,45.377,27.406,45.786L27.406,45.786z M27.406,45.786"/>
	<path d="M76,42.198v18.291c2.351-0.602,3.996-2.719,4-5.145v-8C79.997,44.916,78.351,42.8,76,42.198L76,42.198z M76,42.198"/>
	<path d="M0,47.343v8c0.004,2.427,1.649,4.543,4,5.145V42.198C1.649,42.8,0.003,44.916,0,47.343L0,47.343z M0,47.343"/>
</g>
</svg>
