<?xml version="1.0" encoding="iso-8859-1"?>
<!-- Generator: Adobe Illustrator 19.0.0, SVG Export Plug-In . SVG Version: 6.00 Build 0)  -->
<svg version="1.1" id="Capa_1" xmlns="http://www.w3.org/2000/svg" xmlns:xlink="http://www.w3.org/1999/xlink" x="0px" y="0px"
	 viewBox="0 0 512 512" style="enable-background:new 0 0 512 512;" xml:space="preserve">
<g>
	<g>
		<path d="M512,82.042c0-16.458-13.389-29.847-29.846-29.847h-18.108V36.211c0-19.832-16.133-35.965-35.965-35.965H289.214
			c-19.832,0-35.965,16.133-35.965,35.965v15.985H30.34c-16.458,0-29.847,13.389-29.847,29.847v60.191
			c0,16.457,13.389,29.847,29.847,29.847h7.072l17.219,34.439c1.692,3.385,5.151,5.523,8.935,5.523h179.819
			c3.784,0,7.243-2.138,8.935-5.523l17.219-34.439h30.662c5.509,0,9.99,4.482,9.99,9.99v259.75h-58.582
			c9.187-13.07,11.018-30.706,5.103-49.819l-29.131-94.119l15.306-46.768c0.996-3.043,0.474-6.379-1.406-8.971
			c-1.879-2.593-4.887-4.127-8.089-4.127H73.557c-3.202,0-6.21,1.534-8.089,4.127c-1.879,2.592-2.402,5.928-1.406,8.971
			l12.062,36.855H50.635c-25.942,0-47.584,19.112-50.343,44.456c-1.535,14.102,3.016,28.244,12.483,38.798
			c9.493,10.582,23.041,16.651,37.169,16.651h1.57l-1.279,4.13c-5.915,19.112-4.086,36.748,5.102,49.819h-25
			c-16.457,0-29.846,13.389-29.846,29.846v30.095c0,5.518,4.474,9.99,9.99,9.99H502.01c5.518,0,9.99-4.473,9.99-9.99v-49.951v-0.001
			L512,82.042L512,82.042z M273.23,36.211c0-8.814,7.171-15.985,15.985-15.985h138.866c8.813,0,15.985,7.171,15.985,15.985v15.985
			H273.23V36.211z M237.212,192.061H69.743l-9.99-19.981h187.451L237.212,192.061z M300.205,152.099H30.34
			c-5.44,0-9.867-4.426-9.867-9.866v-60.19c0-5.441,4.427-9.867,9.867-9.867h232.9h190.816h28.098c5.44,0,9.865,4.426,9.865,9.867
			v359.779H330.176v-259.75C330.176,165.544,316.731,152.099,300.205,152.099z M219.616,257.997l-9.809,29.971H97.147l-9.809-29.971
			H219.616z M223.09,350.932c-19.96-1.816-30.767,7.566-39.814,15.435c-7.855,6.834-13.534,11.774-25.426,10.443
			c-14.607-1.633-21.382-8.371-29.961-16.902c-8.848-8.799-19.511-19.389-39.774-22.713l9.052-29.246h112.618L223.09,350.932z
			 M113.8,374.075c9.513,9.461,20.295,20.184,41.83,22.591c2.1,0.235,4.1,0.345,6.011,0.345c16.851-0.001,26.686-8.555,34.75-15.569
			c9.082-7.901,15.853-13.774,33.342-9.048l7.897,25.516c4.174,13.486,3.253,24.856-2.663,32.879
			c-5.169,7.01-14.147,11.03-24.634,11.03H96.622c-10.488,0-19.466-4.02-24.635-11.03c-5.916-8.024-6.836-19.394-2.662-32.88
			l4.553-14.709c0.906-1.437,1.454-3.117,1.523-4.924l6.738-21.769C97.846,358.21,105.015,365.339,113.8,374.075z M49.945,367.891
			c-8.462,0-16.588-3.65-22.296-10.012c-5.766-6.429-8.429-14.701-7.493-23.294c1.651-15.185,14.756-26.636,30.479-26.636h25.617
			l-18.553,59.942H49.945z M492.019,491.771H20.473v-20.105c0-5.44,4.426-9.865,9.865-9.865h461.68V491.771z"/>
	</g>
</g>
<g>
	<g>
		<path d="M454.056,358.9h-57.944c-5.517,0-9.99,4.473-9.99,9.99s4.474,9.99,9.99,9.99h57.944c5.518,0,9.99-4.473,9.99-9.99
			S459.573,358.9,454.056,358.9z"/>
	</g>
</g>
<g>
	<g>
		<path d="M454.056,318.938h-86.916c-5.517,0-9.99,4.473-9.99,9.99s4.474,9.99,9.99,9.99h86.916c5.518,0,9.99-4.473,9.99-9.99
			S459.573,318.938,454.056,318.938z"/>
	</g>
</g>
<g>
	<g>
		<path d="M410.598,151.599c-29.643,0-53.761,24.117-53.761,53.761c0.001,29.646,24.118,53.762,53.761,53.762
			c29.643,0,53.761-24.118,53.761-53.762C464.359,175.717,440.241,151.599,410.598,151.599z M410.598,239.142
			c-18.627,0-33.78-15.153-33.78-33.78c0.001-18.627,15.154-33.78,33.78-33.78c18.627,0,33.78,15.153,33.78,33.78
			S429.225,239.142,410.598,239.142z"/>
	</g>
</g>
<g>
	<g>
		<path d="M121.376,112.137H63.432c-5.517,0-9.99,4.473-9.99,9.99s4.474,9.99,9.99,9.99h57.944c5.517,0,9.99-4.473,9.99-9.99
			S126.894,112.137,121.376,112.137z"/>
	</g>
</g>
<g>
	<g>
		<path d="M151.347,112.137h-0.999c-5.517,0-9.99,4.473-9.99,9.99s4.474,9.99,9.99,9.99h0.999c5.518,0,9.99-4.473,9.99-9.99
			S156.865,112.137,151.347,112.137z"/>
	</g>
</g>
<g>
</g>
<g>
</g>
<g>
</g>
<g>
</g>
<g>
</g>
<g>
</g>
<g>
</g>
<g>
</g>
<g>
</g>
<g>
</g>
<g>
</g>
<g>
</g>
<g>
</g>
<g>
</g>
<g>
</g>
</svg>
