<?xml version="1.0" encoding="iso-8859-1"?>
<!-- Generator: Adobe Illustrator 19.0.0, SVG Export Plug-In . SVG Version: 6.00 Build 0)  -->
<svg version="1.1" id="Capa_1" xmlns="http://www.w3.org/2000/svg" xmlns:xlink="http://www.w3.org/1999/xlink" x="0px" y="0px"
	 viewBox="0 0 368 368" style="enable-background:new 0 0 368 368;" xml:space="preserve">
<g>
	<g>
		<path d="M344,32h-24v-8c0-13.232-10.768-24-24-24H72C58.768,0,48,10.768,48,24v40h-8C17.944,64,0,81.944,0,104v48
			c0,22.056,17.944,40,40,40h136v32h-8c-13.232,0-24,10.768-24,24v96c0,13.232,10.768,24,23.992,24H200c13.232,0,24-10.768,24-24
			v-96c0-13.232-10.768-24-24-24h-8v-40c0-4.416-3.576-8-8-8H40c-13.232,0-24-10.768-24-24v-48c0-13.232,10.768-24,24-24h8v40
			c0,13.232,10.768,24,24,24h224c13.232,0,24-10.768,24-24v-8h24c13.232,0,24-10.768,24-24V56C368,42.768,357.232,32,344,32z
			 M208,344c0,4.408-3.584,8-8,8h-32.008c-4.408,0-7.992-3.592-7.992-8v-24h48V344z M200,240c4.416,0,8,3.592,8,8v56h-48v-56
			c0-4.408,3.584-8,8-8H200z M304,40v64v16c0,4.416-3.584,8-8,8H72c-4.416,0-8-3.592-8-8V24c0-4.408,3.584-8,8-8h224
			c4.416,0,8,3.592,8,8V40z M352,88c0,4.416-3.584,8-8,8h-24V48h24c4.416,0,8,3.592,8,8V88z"/>
	</g>
</g>
<g>
</g>
<g>
</g>
<g>
</g>
<g>
</g>
<g>
</g>
<g>
</g>
<g>
</g>
<g>
</g>
<g>
</g>
<g>
</g>
<g>
</g>
<g>
</g>
<g>
</g>
<g>
</g>
<g>
</g>
</svg>
